<svg width="339" height="233" viewBox="0 0 339 233" fill="none" xmlns="http://www.w3.org/2000/svg" style=""><path d="M199.176 139.698h136.276l2.548.88v3.102l-1.081 1.761-3.587.22h-131.3l-2.856-5.963Z" fill="#3EAE8D" fill-opacity="0.4"/><path d="m221.55 182.13 2.864 7.824 1.696 5.702-2.049 2.67-4.128 1.947-2.29.287-2.078-.939-1.808.872-.96 2.147-2.211 1.533-12.357 4.132v8.808s25.354-4.568 35.3-12.55a.705.705 0 0 0 .166-.893l-12.145-21.54ZM202.032 145.661l6.501 13.571 3.329-.515-4.917-13.056h-4.913Z" fill="#F3DFD5"/><path d="M219.002 175.914h113.902l2.257.971.856 2.135-.64 1.889-2.473 1.225H221.55l-2.548-6.22Z" fill="#B2DFD1"/><path d="M205.748 222.81c8.088.648 16.33 1.329 23.995 3.563 2.165.631 1.758 3.825-.495 3.875h-.067c-11.31.238-22.624.252-33.941.041a182.816 182.816 0 0 1-14.451-.83c-3.562-.345-10.13-.831-11.917-3.322-4.11-5.752 17.993-4.543 20.504-4.436 5.47.237 10.923.673 16.372 1.109ZM138.202 219.708a179.459 179.459 0 0 0-33.01-3.061 34.152 34.152 0 0 0-6.143.436c-2.681.503-3.242 3.555-.873 4.739 4.921 2.466 11.031 3.322 16.812 4.032 11.464 1.366 22.977 2.554 34.548 2.861a6.071 6.071 0 0 0 3.7-1.051c5.478-3.961-12.54-7.487-15.034-7.956Z" fill="#F5F5F5"/><path d="M76.596 214.444H197.64" stroke="#666" stroke-opacity="0.8" stroke-miterlimit="10" stroke-linecap="round"/><path d="M249.294 116.854s-39.315 6.025-50.118 2.226" stroke="#D0ECFA" stroke-miterlimit="10" stroke-linecap="round"/><path d="M237.665 110.862s8.009 9.713 8.645 23.068M228.832 111.667s6.351 9.651 6.081 15.589M220.382 112.439s4.132 10.249 3.853 14.809M209.95 113.993s3.961 10.884 3.819 22.474" stroke="#D0ECFA" stroke-miterlimit="10" stroke-linecap="round"/><path d="M239.123 134.985s-32.419.926-37.1-1.055M185.61 122.049s-4.194 13.704 1.721 40.497" stroke="#D0ECFA" stroke-miterlimit="10" stroke-linecap="round"/><path d="M192.148 133.465s-9.468-2.018-12.054 0M192.148 145.657s-8.001-1.312-9.356-.166" stroke="#D0ECFA" stroke-miterlimit="10" stroke-linecap="round"/><path d="M195.452 156.89s-9.614.037-11.284 1.827" stroke="#FDCFB0" stroke-opacity="0.3" stroke-miterlimit="10" stroke-linecap="round"/><path d="M189.825 140.578s2.327 16.673 3.237 21.125M203.865 110.861s-9.385-4.526-12.981-6.054a1.921 1.921 0 0 0-1.945.257c-2.909 2.288-12.257 9.622-14.132 11.213" stroke="#D0ECFA" stroke-miterlimit="10" stroke-linecap="round"/><path d="M226.172 105.791s-30.982-11.594-36.651-14.177a1.405 1.405 0 0 0-1.467.186c-3.483 2.853-18.92 15.515-20.695 17.633" stroke="#D0ECFA" stroke-miterlimit="10" stroke-linecap="round"/><path d="M188.694 110.629a80.987 80.987 0 0 1-11.43-13.741M177.355 110.778a53.976 53.976 0 0 1-7.286-9.302M208.217 93.395c-1.725.864-2.839 2.583-3.762 4.273a47.047 47.047 0 0 0-3.184 7.247M218.541 97.698a20.084 20.084 0 0 0-5.092 9.501M186.545 88.113a24.426 24.426 0 0 0 .919 10.465" stroke="#D0ECFA" stroke-miterlimit="10" stroke-linecap="round"/><path d="M163.569 5.358a21.023 21.023 0 0 0-3.546 12.94" stroke="#FDCFB0" stroke-opacity="0.3" stroke-miterlimit="10" stroke-linecap="round"/><path d="M221.617 26.454a16.948 16.948 0 0 0-1.276 5.813" stroke="#FDCFB0" stroke-opacity="0.3" stroke-width="4" stroke-miterlimit="10" stroke-linecap="round"/><path d="m232.037 25.486-2.186-1.574-1.281-2.94.811-4.477 2.153-3.289 3.263-1.972 2.477.312 1.505 1.133 1.005 1.516.715.623 2.968.203 3.778 1.724 3.101 2.325 3.778 3.775 2.116 2.085 3.171 3.235 1.446 3.828v4.174l-1.608 4.88-2.22 3.666-2.153 2.346-2.078 1.603-1.584.499-1.01-2.459-.386-2.205 1.683-1.678 1.297-3.99-.798-2.434-2.344-1.021-2.448 1.553-1.704 3.114-.89 1.89-.894-1.89-.166-4.152-1.446-2.475-2.943-1.42-1.978-1.745-2.266-2.084-1.874-2.459-1.01-.22Z" fill="#FDCFAF" style=""/><path d="m216.791 171.196 9.107 22.412.274 2.65-3.35 2.649-2.889 1.366-2.29.287-2.061-.939-1.808.872-.761 1.686-1.762 1.774-37.553 12.57-2.818.59-2.515-1.62.345-4.506 2.581-6.877 3.521-5.203 5.033-3.164 3.375-3.003.736-2.786-.254-3.501 7.976-4.742 10.346-4.743 7.926-3.172 6.841-2.6ZM173.07 136.467l-17.931 26.079-2.668 4.036-3.749.561-2.976-1.35-3.23-2.213-2.207-2.413-2.061-4.277-1.405-1.192-8.575-1.79-10.237-4.43-6.879-5.162-5.403-6.354-3.101-5.523-2.199-5.511.424-3.754 2.852-3.33 5.69-1.919h6.051l7.324.673 6.771 1.678 4.16 1.935 3.122 1.848 5.673-2.708 5.121-4.074 6.139 2.567 7.315 5.386 5.561 3.355 3.716 3.073 2.39 2.272.312 2.537Z" fill="#13A2E4" fill-opacity="0.2"/><path d="M236.11 14.739a12.616 12.616 0 0 0-3.583 7.782M235.404 28.04a8.71 8.71 0 0 1 1.612-5.286c.512-.715 1.206-1.383 2.078-1.483.873-.1 1.842.673 1.663 1.528 1.812-.95 4.726 0 5.615 1.828M256.531 30.498c.536.258.698.93.773 1.52a18.508 18.508 0 0 1-2.889 12.305" stroke="#F68A3E" stroke-opacity="0.2" stroke-miterlimit="10" stroke-linecap="round"/><path d="m159.936 1.08-4.073.744-2.494 2.645-2.735 6.765-1.542 8.243 1.534 4.153s2.427 2.492 7.597 2.865c.013-.025-7.469-4.809 1.713-25.414Z" fill="#F68A3E" fill-opacity="0.2"/><path d="M196.142 34.917h-2.456l-2.033 1.632-.806 2.74 1.151 3.53 2.918 1.055 2.881-.814.831-2.832v-3.14l-2.486-2.171Z" fill="#D0ECFA"/><path d="m189.854 42.479-2.32 18.077.258 15.008 1.309 8.662 1.796 5.237 2.078 2.147 5.869.54 3.179-.295s-7.132 1.212-10.715-16.856a76.607 76.607 0 0 1-1.421-14.825l-.033-17.695Z" fill="#F68A3E" fill-opacity="0.2"/><path d="M187.331 82.337s-6.023-.706-8.488 3.654l-20.574 20.693 4.078 2.757s13.234-19.845 24.984-27.104ZM151.241 118.727s-4.867-.499-4.572-4.635l5.262-6.76a12.236 12.236 0 0 1 5.125-1.188s-8.45 6.088-5.815 12.583ZM209.95 110.862l-22.827 1.661s-11.185 1.686-13.883 10.967c0 0-3.175 5.49 3.429 29.704l3.849 19.198a9.34 9.34 0 0 0-1.001 8.85l2.144 4.343s.832 1.566 4.31-.564c0 0-5.544-3.281-1.305-15.901-2.215-18.687-3.919-26.993-5.212-30.589-1.101-3.061-1.164-5.166-1.292-9.381 0-.228-.054-2.413.685-3.401.071-.1 1.085-1.524 1.364-1.806a25.859 25.859 0 0 1 4.888-4.274c2.705-1.773 11.883-5.552 24.851-8.807Z" fill="#D0ECFA"/><path d="m147.554 117.211-3.508 2.973-3.383 2.492-2.415 1.744-3.604-1.744-4.115-2.122-4.343-1.072-3.396-.415-5.287-.934-5.403-.208-3.637.324-4.343 1.213-2.723 2.603s9.83-3.554 24.008.337a36.929 36.929 0 0 1 9.351 4.045c1.364.83 2.864 1.74 3.945 2.416a1.832 1.832 0 0 0 2.307-.303c2.402-2.591 8.425-8.774 11.459-9.177l-3.612-1.458-1.301-.714ZM174.911 212.246a5.03 5.03 0 0 1-1.247 1.378 1.816 1.816 0 0 1-1.77.229c-.79-.386-1.006-1.404-1.018-2.284-.025-1.969.498-3.908 1.138-5.777a14.374 14.374 0 0 1 2.257-4.48c1.06-1.304 2.594-2.309 4.277-2.401.981-.049 2.569.465 2.681 1.632.104 1.097-1.222 2.949-1.704 3.912a63.644 63.644 0 0 1-4.614 7.791Z" fill="#13A2E4" fill-opacity="0.2"/><path d="M149.923 136.629c.831 1.163 1.6 2.467 1.588 3.891a.502.502 0 0 1-.027.224.501.501 0 0 1-.119.191.487.487 0 0 1-.436.042c-.852-.212-1.476-.922-2.041-1.59-.86-1.018-5.894-5.785-4.518-6.686 2.112-1.354 4.772 2.799 5.553 3.928ZM150.555 125.002a3.608 3.608 0 0 0-1.742-.573.462.462 0 0 0-.278.083.438.438 0 0 0-.112.365 2.42 2.42 0 0 0 1.105 1.819 7.945 7.945 0 0 0 2.012.897 60.082 60.082 0 0 1 7.432 3.131c.473.241 1.172.415 1.438-.029.374-.635-8.725-5.091-9.855-5.693Z" fill="#13A2E4" fill-opacity="0.3"/><path d="M232.939 25.847c-6.123-2.1-4.418-7.616-3.155-10.286a7.344 7.344 0 0 1 2.078-2.62c5.985-4.763 8.226 1.968 8.226 1.968 6.172-1.383 13.579 7.317 15.129 9.244.188.231.416.427.673.577 1.414.83 6.193 4.244 4.926 11.74 0 0-1.467 8.526-8.837 12.707a.76.76 0 0 1-1.068-.324 12.953 12.953 0 0 1-1.097-4.397" stroke="#666" stroke-opacity="0.8" stroke-miterlimit="10" stroke-linecap="round"/><path d="M232.037 23.605s1.38 3.933 4.277 5.643c.217.123.424.261.619.416.731.618 2.772 2.284 4.21 2.973a2.907 2.907 0 0 1 1.376 1.441c.574 1.316 1.359 3.584 1.201 5.814-.026.392.076.783.291 1.113l.603.922a.153.153 0 0 0 .064.055.147.147 0 0 0 .161-.025.143.143 0 0 0 .045-.072c.366-1.316 1.92-6.229 4.772-6.515 0 0 3.395-.212 3.129 4.152 0 0-.798 5.141-4.297 4.983 0 0-1.168-.107-1.488-.585M231.75 25.35l-.253 4.218c-.027.449-.18.88-.441 1.246l-3.554 4.946a.774.774 0 0 0-.025.857c.054.086.125.16.208.219l.744.498a1.392 1.392 0 0 1 .599 1.121l.108 6.599a3.008 3.008 0 0 0 2.344 2.907c3.325.755 9.269 1.935 11.7 1.3" stroke="#666" stroke-opacity="0.8" stroke-miterlimit="10" stroke-linecap="round"/><path d="M233.554 30.503v-.03a.582.582 0 0 1 .757-.224 17.119 17.119 0 0 1 3.254 2.048c.042.039.068.092.075.148a.244.244 0 0 1-.175.26.24.24 0 0 1-.166-.014 17.036 17.036 0 0 0-3.367-1.316.585.585 0 0 1-.378-.872ZM233.974 35.058a.822.822 0 1 1-.001-1.645.822.822 0 0 1 .001 1.645ZM233.974 43.006s-3.105.586-4.884-.527" stroke="#666" stroke-opacity="0.8" stroke-miterlimit="10" stroke-linecap="round"/><path d="M235.832 41.046c-1.628 0-2.947-.51-2.947-1.138 0-.628 1.319-1.137 2.947-1.137 1.627 0 2.947.51 2.947 1.137 0 .629-1.32 1.138-2.947 1.138Z" fill="#FDCFAF"/><path d="M249.294 38.675a1.437 1.437 0 0 1 .092 2.737M237.665 49.264c.161 1.07.214 2.152.158 3.231a.822.822 0 0 0 .497.828c.105.046.219.07.334.07 2.61-.046 9.643-.383 12.723-2.65a1.518 1.518 0 0 0 .615-1.304l-.021-.278" stroke="#666" stroke-opacity="0.8" stroke-miterlimit="10" stroke-linecap="round"/><path d="M251.954 49.887a7.489 7.489 0 0 1 5.325 1.661s6.33 7.421 11.741 29.26c0 0 11.871 36.158-8.533 58.354 0 0-3.42 2.4-1.725-11.171 0 0 .832-14.7-18.109-18.658 0 0-4.776-1.432-7.839-4.439a6.905 6.905 0 0 1-1.55-7.346c1.745-4.689 5.253-14.95 4.717-20.174" stroke="#666" stroke-opacity="0.8" stroke-miterlimit="10" stroke-linecap="round"/><path d="M237.926 52.973s-13.948 8.517-20.042 12.973a1.17 1.17 0 0 0 0 1.885c3.076 2.3 10.653 8.596 10.695 14.85 0 0 19.227-13.704 21.775-16.826" stroke="#666" stroke-opacity="0.8" stroke-miterlimit="10" stroke-linecap="round" style=""/><path d="M232.037 80.181a22.056 22.056 0 0 0-9.286-14.609M217.876 67.831l-14.568 7.708a.38.38 0 0 1-.517-.153.378.378 0 0 1-.044-.192c.095-4.153.561-26.993-.724-32.013" stroke="#666" stroke-opacity="0.8" stroke-miterlimit="10" stroke-linecap="round"/><path d="M189.854 42.479s-5.861 32.333 1.043 46.984a4.614 4.614 0 0 0 3.741 2.62c4.638.415 15.744-.029 33.928-9.402M194.916 43.874c-2.247 0-4.069-2.052-4.069-4.584 0-2.532 1.822-4.585 4.069-4.585s4.069 2.053 4.069 4.585-1.822 4.584-4.069 4.584Z" stroke="#666" stroke-opacity="0.8" stroke-miterlimit="10" stroke-linecap="round"/><path d="M198.615 37.396c1.698.147 3.35.634 4.855 1.433a1.193 1.193 0 0 1 .594 1.287l-.415 1.99a1.202 1.202 0 0 1-1.029.946c-.166.019-.333.004-.493-.045a19.134 19.134 0 0 0-4.06-.831M191.209 37.396l-1.493.229a1.03 1.03 0 0 0-.868 1.013v2.815a1.027 1.027 0 0 0 1.026 1.026h2.124M203.47 38.829l.457-6.815a3.89 3.89 0 0 0-1.937-3.63l-3.741-2.159a2.66 2.66 0 0 1-1.313-2.62l.345-2.907a2.192 2.192 0 0 0-1.575-2.367 2.19 2.19 0 0 0-2.735 1.561l-1.185 4.569a4.181 4.181 0 0 0 .067 2.325l1.114 3.46" stroke="#666" stroke-opacity="0.8" stroke-miterlimit="10" stroke-linecap="round"/><path d="m189.712 31.454-1.454-2.646a11.063 11.063 0 0 1-.096-10.46l.461-.872a2.275 2.275 0 0 1 1.374-1.125 2.27 2.27 0 0 1 2.657 1.144c.2.39.283.831.238 1.268l-.258 2.442" stroke="#666" stroke-opacity="0.8" stroke-miterlimit="10" stroke-linecap="round"/><path d="m187.239 31.454-2.153-3.078a10.193 10.193 0 0 1-1.542-8.305l.857-3.438a1.717 1.717 0 0 1 3.105-.547c.223.337.32.743.274 1.145l-.246 2.583" stroke="#666" stroke-opacity="0.8" stroke-miterlimit="10" stroke-linecap="round"/><path d="m183.831 18.92-.075-1.245a1.455 1.455 0 0 0-1.065-1.314 1.452 1.452 0 0 0-.597-.036 1.448 1.448 0 0 0-1.247 1.42A27.468 27.468 0 0 0 188 36.55l1.201 1.32M168.207 5.561l32.877 10.698 1.168.486M182.838 28.297l-20.08-4.144" stroke="#666" stroke-opacity="0.8" stroke-miterlimit="10" stroke-linecap="round"/><path d="M169.4 5.952s.141-.415.262-.905a.592.592 0 0 0-.37-.717.592.592 0 0 0-.74.322c-2.007 4.315-6.812 15.365-5.889 20.278a.826.826 0 0 0 .727.697c.337 0 .706-.203.852-1.167" stroke="#666" stroke-opacity="0.8" stroke-miterlimit="10" stroke-linecap="round"/><path d="m169.213 4.307-8.171-2.94a6.204 6.204 0 0 0-4.429.086 6.194 6.194 0 0 0-3.24 3.016c-1.829 3.738-3.961 9.161-4.273 14.697a6.197 6.197 0 0 0 4.339 6.27c3.164.993 7.399 1.803 9.951.191M210.284 28.408a2.028 2.028 0 0 0-.744 2.774l.966 1.672a2.562 2.562 0 0 0 3.498.937l.507-.293a.922.922 0 0 0 .315-1.265l-1.777-3.075a2.03 2.03 0 0 0-2.776-.744l.011-.006ZM217.502 23.102l-.873-3.28a2.413 2.413 0 0 0-1.355-1.59l-.087-.038a2.434 2.434 0 0 0-2.976.83l-1.983 2.804a1.804 1.804 0 0 0-.295 1.359 1.804 1.804 0 0 0 .765 1.161 1.8 1.8 0 0 0 2.003-.02c.195-.133.362-.304.491-.503l1.571-2.462M209.449 17.167a1.526 1.526 0 0 1 2.51 1.733l-1.981 2.863a1.526 1.526 0 0 1-2.51-1.734l1.981-2.862ZM206.507 15.958a1.526 1.526 0 0 1 2.509 1.734l-1.981 2.862a1.526 1.526 0 0 1-2.509-1.733l1.981-2.863ZM203.346 15.164a1.526 1.526 0 0 1 2.509 1.733l-1.981 2.863a1.526 1.526 0 0 1-2.509-1.734l1.981-2.862ZM210.32 32.533l-6.385-1.08" stroke="#666" stroke-opacity="0.8" stroke-miterlimit="10" stroke-linecap="round"/><path d="m214.904 32.99 7.985 1.35a2.253 2.253 0 0 0 2.585-1.765l.864-4.203a2.245 2.245 0 0 0-1.434-2.57l-10.519-3.833" stroke="#666" stroke-opacity="0.8" stroke-miterlimit="10" stroke-linecap="round"/><path d="M224.651 25.706s-2.581 2.247-1.762 8.634M211.912 34.05l-1.06 37.49M234.913 85.99l-12.162-.497M209.95 90.206l20.869 9.933M188.752 82.681l-1.417-.344a7.488 7.488 0 0 0-7.141 2.076l-21.542 22.271M239.123 108.76l-51.31 3.675c-7.199.515-13.376 5.561-15.021 12.583a19.912 19.912 0 0 0-.341 7.093l8.067 40.269M194.243 129.403l14.289 29.829" stroke="#666" stroke-opacity="0.8" stroke-miterlimit="10" stroke-linecap="round"/><path d="m213.021 160.104 4.41 8.609a1.92 1.92 0 0 1 .078 1.593 1.933 1.933 0 0 1-1.146 1.11c-6.272 2.247-24.988 9.215-31.68 14.564a2.074 2.074 0 0 1-1.594.467 2.087 2.087 0 0 1-1.428-.849 16.296 16.296 0 0 1-2.664-6.454 8.428 8.428 0 0 1 3.213-8.334c3.907-2.936 11.896-7.379 27.848-11.993a2.544 2.544 0 0 1 2.963 1.287ZM251.634 127.672s-38.75 6.254-53.821-.744M259.257 139.32l-.952.756" stroke="#666" stroke-opacity="0.8" stroke-miterlimit="10" stroke-linecap="round"/><path d="M199.176 139.698h136.841a1.98 1.98 0 0 1 1.983 1.981v2.001a1.972 1.972 0 0 1-1.224 1.828c-.241.099-.498.15-.759.149H202.032" stroke="#3EAE8D" stroke-opacity="0.8" stroke-miterlimit="10" stroke-linecap="round"/><path d="M333.332 145.657s1.966 21.067-.71 30.257h-113.62M221.55 182.13h111.354a3.096 3.096 0 0 0 2.201-.908 3.09 3.09 0 0 0 .912-2.198c0-.409-.08-.813-.237-1.19a3.086 3.086 0 0 0-.674-1.009 3.13 3.13 0 0 0-1.01-.675 3.124 3.124 0 0 0-1.192-.236h-.282" stroke="#65BEA4" stroke-miterlimit="10" stroke-linecap="round"/><path d="m216.791 171.192 9.107 22.424a3.684 3.684 0 0 1-1.837 4.718l-4.128 1.947a3.55 3.55 0 0 1-3.57-.265c-1.002-.715-2.386-.897-3.35 2.172a2.763 2.763 0 0 1-1.762 1.773l-38.829 12.998a3.089 3.089 0 0 1-2.839-.468 3.077 3.077 0 0 1-1.214-2.605c.258-5.046 2.44-13.409 13.143-19.09.113-.059.218-.133.311-.22a6.693 6.693 0 0 0 2.116-5.494l-.237-2.629" stroke="#666" stroke-opacity="0.8" stroke-miterlimit="10" stroke-linecap="round"/><path d="M198.245 208.305v8.808h132.681v-34.979M333.573 148.722H209.95M333.573 161.703H221.55M333.573 170.802H224.726" stroke="#65BEA4" stroke-miterlimit="10" stroke-linecap="round"/><path d="M174.812 120.184s-8.729-8.334-15.408-12.873a6.54 6.54 0 0 0-8.504.955c-1.663 1.798-3.367 4.032-4.078 6.121a2.672 2.672 0 0 0 1.36 3.268c.39.191.798.342 1.217.453a10.98 10.98 0 0 1 2.694 1.071c4.73 2.737 19.119 11.341 20.931 15.822M173.24 136.06l-20.324 29.742a3.576 3.576 0 0 1-4.194 1.341c-3.263-1.208-8.5-3.957-10.121-9.468a3.048 3.048 0 0 0-.948-1.474 3.03 3.03 0 0 0-1.662-.723c-4.859-.502-27.553-4.102-35.201-27.856a6.88 6.88 0 0 1 2.144-7.357 6.903 6.903 0 0 1 2.362-1.293c4.277-1.366 11.638-1.823 24.277 1.304.78.187 1.535.466 2.249.83 2.153 1.118 6.966 3.796 9.867 6.798" stroke="#666" stroke-opacity="0.8" stroke-miterlimit="10" stroke-linecap="round"/><path d="M147.637 117.277s-8.358 7.06-10.237 7.156M101.401 122.049s33.987-.627 40.758 24.181c.258.975.776 1.86 1.5 2.562l.275.27a5.717 5.717 0 0 0 1.982 1.246c2.606.951 9.144 4.153 9.223 12.238M143.128 148.215l-6.285 7.483M144.399 149.478l-6.151 7.412M114.444 123.573l-6.866 11.412M121.905 125.774l-10.894 16.872M129.12 129.279l-12.664 18.288M134.569 133.465l-9.659 13.396" stroke="#666" stroke-opacity="0.8" stroke-miterlimit="10" stroke-linecap="round"/><path d="M137.421 123.71a8.07 8.07 0 0 0 .615-2.778c.133-1.362.241-2.762-.108-4.086-.349-1.325-1.247-2.583-2.544-3.015a1.47 1.47 0 0 0-.906-.05 1.246 1.246 0 0 0-.744 1.046 3.11 3.11 0 0 0 .212 1.329c1.114 3.393 3.371 6.399 3.961 9.921.308 1.844.141 3.737-.071 5.59" stroke="#666" stroke-opacity="0.8" stroke-miterlimit="10" stroke-linecap="round"/><path d="M137.479 123.976c.885-2.263 1.841-4.622 3.707-6.175.566-.474 1.434-.831 1.991-.37.462.395.416 1.121.187 1.686-.652 1.715-2.269 2.866-3.898 3.709-1.63.843-3.388 1.515-4.76 2.732a13.321 13.321 0 0 0-2.011 2.413M178.432 186.831a3.345 3.345 0 0 0-1.663 0 1.66 1.66 0 0 0-1.155 1.138c-.2.831.461 1.64 1.118 2.213.927.802 7.764 4.656 7.947 2.077.071-1.005-1.846-2.853-2.527-3.472a7.94 7.94 0 0 0-3.72-1.956Z" stroke="#666" stroke-opacity="0.8" stroke-miterlimit="10" stroke-linecap="round"/><path d="M184.55 192.74a23.986 23.986 0 0 1 4.373 11.67c.44 4.642-.491 9.293-.686 13.953-.087 2.076 0 4.219.831 6.108.831 1.89 2.432 3.351 3.965 4.759M181.416 192.994c-1.887.307-3.579 1.324-5.133 2.433-1.554 1.109-3.038 2.342-4.759 3.177-1.721.835-3.741 1.246-5.545.606M165.24 198.488a10.627 10.627 0 0 1-4.157-2.745M193.615 229.691a2.952 2.952 0 0 1 1.521 2.309M189.293 190.382c1.33-.993 2.443-2.371 2.784-3.999.167-.777.063-1.744-.631-2.139-.549-.311-1.247-.125-1.813.15-1.525.743-2.685 2.076-3.641 3.467a9.01 9.01 0 0 0-1.284 2.492c-1.118 3.779 3.188 1.071 4.585.029Z" stroke="#666" stroke-opacity="0.8" stroke-miterlimit="10" stroke-linecap="round"/><path d="M186.682 199.501a6.48 6.48 0 0 0-3.645-1.914 8.913 8.913 0 0 0-4.156.324M191.678 125.251a10.698 10.698 0 0 1-1.425 3.99M190.706 136.467l7.81 18.048M166.079 114.624a26.447 26.447 0 0 1-3.18 4.456M245.154 77.565c-.831 2.97-1.704 6.01-1.483 9.086.685 9.622 11.38 16.242 12.132 25.859M253.301 130.956a83.9 83.9 0 0 0 .37 5.947" stroke="#666" stroke-opacity="0.8" stroke-miterlimit="10" stroke-linecap="round" style=""/><path d="M123.22 66.024c1.04 1.39.136 3.74-1.566 4.08-.487.096-1.011.056-1.464.268-.798.366-1.062 1.387-1.036 2.27.025.881.241 1.778 0 2.63-.242.854-1.142 1.626-1.947 1.267M132.916 73.091c.534 1.098.732 2.562-.117 3.412-.849.849-2.438.61-3.642 1.054-2.522.933-2.789 4.597-4.985 6.156M143.852 82.278c-1.35-.366-2.781.114-4.062.688a29.736 29.736 0 0 0-7.354 4.722M87.27 36.38a11.234 11.234 0 0 0-11.09 1.223M89.646 41.687a8.208 8.208 0 0 0-5.765 2.866M37.31 15.587A11.035 11.035 0 0 0 26.84 17.98M25.915 9.778a14.092 14.092 0 0 0-5.834 1.79" stroke="#666" stroke-opacity="0.1" stroke-miterlimit="10" stroke-linecap="round"/><path d="M161.875 82.362c-3.686-1.028-31.565-9.516-44.617-33.918a.237.237 0 0 0-.241-.12.235.235 0 0 0-.195.186c-.637 3.69-4.081 21.276-12.1 23.974a.283.283 0 0 0-.195.215.283.283 0 0 0 .089.275c2.562 2.34 17.1 16.083 19.362 31.243a.127.127 0 0 0 .107.107.127.127 0 0 0 .134-.07c.652-1.384 3.09-6.094 7.277-9.19a13.627 13.627 0 0 1 6.559-2.563c5.307-.608 20.712-2.928 24.039-9.63a.364.364 0 0 0-.219-.508ZM103.763 46.394c-2.123-.732-8.21-3.21-11.672-9.022a9.515 9.515 0 0 0-1.307-1.702c-3.338-3.47-15.274-14-27.609-2.083a.622.622 0 0 0 .15 1.003 45.026 45.026 0 0 1 4.027 2.288c.563.366 1.164.732 1.855 1.263.665.48 1.287 1.016 1.86 1.603l.172.187a8.878 8.878 0 0 1 2.027 3.974c.201.86.445 1.707.733 2.54a24.671 24.671 0 0 0 2.562 5.34c3.195 4.73 11.123 6.003 12.444 6.19a.106.106 0 0 0 .117-.08c.158-.566.347-1.122.568-1.666a12.92 12.92 0 0 1 10.903-7.968c1.263-.114 2.562-.366 3.324-.875a.564.564 0 0 0 .231-.544.56.56 0 0 0-.385-.448ZM54.325 20.418S40.57 15.796 31.266 9.621a43.989 43.989 0 0 1-2.65-1.922c-2.218-1.727-11.8-8.253-23.04-2.134a4.326 4.326 0 0 0-2.174 3.342A4.29 4.29 0 0 1 2 11.711s18.118 1.625 22.118 11.614a1.333 1.333 0 0 0 1.94.614c2.006-1.244 5.68-3.158 8.276-2.386-.008 0 18.308 5.036 19.991-1.135Z" stroke="#666" stroke-opacity="0.1" stroke-miterlimit="10" stroke-linecap="round"/></svg>